<svg xmlns="http://www.w3.org/2000/svg" fill-rule="evenodd" stroke-linejoin="round" stroke-miterlimit="2" clip-rule="evenodd" viewBox="0 0 512 512"><path fill="#a7f175" d="M510 113.76v284.48C510 459.922 459.921 510 398.24 510H113.76C52.078 510 2 459.922 2 398.24V113.76C2 52.079 52.078 2 113.76 2h284.48C459.921 2 510 52.079 510 113.76"/><path fill-rule="nonzero" d="M240.452 347.541c-20.696 0-33.871-12.624-33.871-28.663 0-68.57 179.287-82.28 179.287-155.108 0-44.426-51.168-63.569-116.478-63.569-39.735 0-84.66 7.399-126.377 20.626v86.867c61.481-45.029 129.792-64.309 173.803-64.309 27.662 0 46.443 7.76 46.443 21.678 0 57.308-247.287 48.219-247.287 172.061 0 47.478 32.456 74.675 78.123 74.675 69.07 0 121.307-67.5 160.386-149.78l7.916 2.845c-20.592 50.289-63.171 105.424-71.484 140.864h88.92V222.371H359.31c-29.819 65.138-73.502 125.17-118.86 125.17z"/></svg>